HIERARCHY
ROOT Hips
{
	OFFSET 0.000000 0.000000 0.000000
	CHANNELS 6 Xposition Yposition Zposition Zrotation Yrotation Xrotation 
	JOINT LHipJoint
	{
		OFFSET 0.000000 0.000000 0.000000
		CHANNELS 3 Zrotation Yrotation Xrotation
		JOINT LeftUpLeg
		{
			OFFSET 1.363060 -1.794630 0.839290
			CHANNELS 3 Zrotation Yrotation Xrotation
			JOINT LeftLeg
			{
				OFFSET 2.448110 -6.726130 0.000000
				CHANNELS 3 Zrotation Yrotation Xrotation
				JOINT LeftFoot
				{
					OFFSET 2.562200 -7.039590 0.000000
					CHANNELS 3 Zrotation Yrotation Xrotation
					JOINT LeftToeBase
					{
						OFFSET 0.157640 -0.433110 2.322550
						CHANNELS 3 Zrotation Yrotation Xrotation
						End Site
						{
							OFFSET 0.000000 0.000000 0.000000
						}
					}
				}
			}
		}
	}
	JOINT RHipJoint
	{
		OFFSET 0.000000 0.000000 0.000000
		CHANNELS 3 Zrotation Yrotation Xrotation
		JOINT RightUpLeg
		{
			OFFSET -1.305520 -1.794630 0.839290
			CHANNELS 3 Zrotation Yrotation Xrotation
			JOINT RightLeg
			{
				OFFSET -2.542530 -6.985550 0.000000
				CHANNELS 3 Zrotation Yrotation Xrotation
				JOINT RightFoot
				{
					OFFSET -2.568260 -7.056230 0.000000
					CHANNELS 3 Zrotation Yrotation Xrotation
					JOINT RightToeBase
					{
						OFFSET -0.164730 -0.452590 2.363150
						CHANNELS 3 Zrotation Yrotation Xrotation
						End Site
						{
							OFFSET 0.000000 0.000000 0.000000
						}
					}
				}
			}
		}
	}
	JOINT LowerBack
	{
		OFFSET 0.000000 0.000000 0.000000
		CHANNELS 3 Zrotation Yrotation Xrotation
		JOINT Spine
		{
			OFFSET 0.028270 2.035590 -0.193380
			CHANNELS 3 Zrotation Yrotation Xrotation
			JOINT Spine1
			{
				OFFSET 0.056720 2.048850 -0.042750
				CHANNELS 3 Zrotation Yrotation Xrotation
				JOINT Neck
				{
					OFFSET 0.000000 0.000000 0.000000
					CHANNELS 3 Zrotation Yrotation Xrotation
					JOINT Neck1
					{
						OFFSET -0.054170 1.746240 0.172020
						CHANNELS 3 Zrotation Yrotation Xrotation
						JOINT Head
						{
							OFFSET 0.104070 1.761360 -0.123970
							CHANNELS 3 Zrotation Yrotation Xrotation
							End Site
							{
								OFFSET 0.000000 0.000000 0.000000
							}
						}
					}
				}
				JOINT LeftShoulder
				{
					OFFSET 0.000000 0.000000 0.000000
					CHANNELS 3 Zrotation Yrotation Xrotation
					JOINT LeftArm
					{
						OFFSET 3.362410 1.200890 -0.311210
						CHANNELS 3 Zrotation Yrotation Xrotation
						JOINT LeftForeArm
						{
							OFFSET 4.983000 -0.000000 -0.000000
							CHANNELS 3 Zrotation Yrotation Xrotation
							JOINT LeftHand
							{
								OFFSET 3.483560 -0.000000 -0.000000
								CHANNELS 3 Zrotation Yrotation Xrotation
								JOINT LeftFingerBase
								{
									OFFSET 0.000000 0.000000 0.000000
									CHANNELS 3 Zrotation Yrotation Xrotation
									JOINT LeftHandIndex1
									{
										OFFSET 0.715260 -0.000000 -0.000000
										CHANNELS 3 Zrotation Yrotation Xrotation
										End Site
										{
											OFFSET 0.000000 0.000000 0.000000
										}
									}
								}
								JOINT LThumb
								{
									OFFSET 0.000000 0.000000 0.000000
									CHANNELS 3 Zrotation Yrotation Xrotation
									End Site
									{
										OFFSET 0.000000 0.000000 0.000000
									}
								}
							}
						}
					}
				}
				JOINT RightShoulder
				{
					OFFSET 0.000000 0.000000 0.000000
					CHANNELS 3 Zrotation Yrotation Xrotation
					JOINT RightArm
					{
						OFFSET -3.136600 1.374050 -0.404650
						CHANNELS 3 Zrotation Yrotation Xrotation
						JOINT RightForeArm
						{
							OFFSET -5.241900 -0.000000 -0.000000
							CHANNELS 3 Zrotation Yrotation Xrotation
							JOINT RightHand
							{
								OFFSET -3.444170 -0.000000 -0.000000
								CHANNELS 3 Zrotation Yrotation Xrotation
								JOINT RightFingerBase
								{
									OFFSET 0.000000 0.000000 0.000000
									CHANNELS 3 Zrotation Yrotation Xrotation
									JOINT RightHandIndex1
									{
										OFFSET -0.622530 -0.000000 -0.000000
										CHANNELS 3 Zrotation Yrotation Xrotation
										End Site
										{
											OFFSET 0.000000 0.000000 0.000000
										}
									}
								}
								JOINT RThumb
								{
									OFFSET 0.000000 0.000000 0.000000
									CHANNELS 3 Zrotation Yrotation Xrotation
									End Site
									{
										OFFSET 0.000000 0.000000 0.000000
									}
								}
							}
						}
					}
				}
			}
		}
	}
}
MOTION
Frames: 12
Frame Time: 0.008333
1.143014 15.490982 2.891922 9.523754 35.543082 24.385631 -10.699006 2.470921 -7.321299 -5.685207 27.088089 -27.661685 -0.782653 4.832126 62.890524 0.859415 4.384589 1.041379 0.435500 0.000000 -75.916400 9.124491 1.418921 -3.755761 24.057945 -10.791026 -60.843827 1.875768 -4.845842 55.361081 -6.143176 -18.418234 -34.657531 -171.797200 -0.000001 -28.867400 2.680849 -3.970852 14.059396 -0.000368 -3.691064 -0.255730 -5.205382 -3.549133 -0.889516 8.055053 -14.145290 -8.080895 -2.758455 -0.173877 -0.471937 0.000000 0.000000 0.000000 7.170557 5.763755 1.393868 -58.572120 6.541884 5.471642 -179.088553 -78.139824 -179.964576 -6.133310 1.802476 -0.081389 0.091161 0.300946 0.000000 0.000000 0.000000 0.000000 0.000000 0.000000 0.000000 9.133907 -10.014233 0.347097 73.363546 -14.726361 12.450650 0.019470 89.380049 -0.026201 -6.009217 2.688989 -0.158565 0.085310 -0.308551 0.000000 0.000000 0.000000 0.000000 0.000000 0.000000 0.000000 
1.219753 15.469579 3.015815 9.677116 34.815480 24.110201 -10.815242 2.515691 -7.271491 -5.193262 27.124661 -27.137977 -0.625011 4.861625 63.673137 0.842547 3.826829 2.688778 0.434500 0.000001 -74.700500 9.171821 1.392597 -3.851686 23.788667 -11.113202 -60.390110 1.816182 -4.925200 56.578597 -6.065867 -18.095319 -35.422321 -171.614700 -0.000000 -28.584700 2.835754 -3.964715 14.089446 0.038860 -3.676390 -0.268929 -5.167462 -3.539279 -0.934744 8.030832 -13.842289 -8.041903 -2.801381 -0.177480 -0.461136 0.000000 0.000000 0.000000 7.087278 5.803232 1.418671 -59.909382 7.594259 5.945051 -179.160192 -78.985533 -179.964160 -6.338072 1.778739 -0.083308 0.097298 0.293998 0.000000 0.000000 0.000000 0.000000 0.000000 0.000000 0.000000 9.308721 -9.698209 0.332925 73.369617 -13.868047 11.983820 0.032489 88.806188 -0.026370 -6.035018 2.547306 -0.151676 0.087037 -0.307328 0.000000 0.000000 0.000000 0.000000 0.000000 0.000000 0.000000 
1.293914 15.450346 3.139521 9.795117 34.058529 23.846528 -10.921071 2.553866 -7.208404 -4.754097 27.079923 -26.698404 -0.474654 4.888735 64.461281 0.842126 3.357222 4.212797 0.409600 0.000000 -72.807099 9.212334 1.352068 -3.941576 23.574880 -11.419542 -59.885953 1.778513 -4.985915 57.612472 -5.988710 -17.722830 -36.179526 -171.466100 0.000000 -28.188600 2.974719 -3.949718 14.099254 0.072341 -3.653847 -0.283499 -5.136939 -3.521776 -0.972861 8.026952 -13.538826 -7.991708 -2.841164 -0.180998 -0.447104 0.000000 0.000000 0.000000 7.008699 5.841036 1.440183 -61.272767 8.633237 6.366943 -179.241510 -79.950487 -179.964116 -6.494010 1.772328 -0.085424 0.102260 0.286375 0.000000 0.000000 0.000000 0.000000 0.000000 0.000000 0.000000 9.495183 -9.389355 0.312076 73.386036 -12.952880 11.512120 0.046356 88.216568 -0.026872 -6.125924 2.377125 -0.144686 0.089757 -0.305905 0.000000 0.000000 0.000000 0.000000 0.000000 0.000000 0.000000 
1.365089 15.433202 3.263308 9.899812 33.281559 23.608058 -11.012965 2.587377 -7.133154 -4.392870 26.946011 -26.340381 -0.333303 4.911289 65.238627 0.854124 2.982110 5.580047 0.372300 -0.000000 -70.604800 9.251508 1.304361 -4.023335 23.380171 -11.707636 -59.338469 1.759340 -5.030383 58.473921 -5.911272 -17.307165 -36.916102 -171.355200 -0.000000 -27.768700 3.086009 -3.928100 14.089090 0.097783 -3.625562 -0.298774 -5.114337 -3.498486 -1.002436 8.042380 -13.245637 -7.934903 -2.876298 -0.184264 -0.431068 0.000000 0.000000 0.000000 6.937966 5.878278 1.459081 -62.644553 9.649173 6.740057 -179.330641 -81.029082 -179.964452 -6.596388 1.782259 -0.087936 0.105885 0.278097 0.000000 0.000000 0.000000 0.000000 0.000000 0.000000 0.000000 9.686923 -9.097631 0.284050 73.425911 -11.997405 11.038468 0.060186 87.636305 -0.027694 -6.274377 2.191348 -0.137894 0.093229 -0.304581 0.000000 0.000000 0.000000 0.000000 0.000000 0.000000 0.000000 
1.433138 15.418098 3.387286 10.004191 32.495543 23.406312 -11.090271 2.617661 -7.046160 -4.125370 26.717454 -26.073942 -0.202023 4.930298 66.012440 0.871285 2.683122 6.721162 0.328300 0.000000 -67.817800 9.291951 1.254059 -4.092980 23.180009 -11.966361 -58.759354 1.753929 -5.060585 59.180050 -5.834262 -16.862879 -37.613256 -171.283400 0.000000 -27.324400 3.167216 -3.901545 14.055940 0.114945 -3.593363 -0.314938 -5.099584 -3.471122 -1.022050 8.074003 -12.970781 -7.876586 -2.905549 -0.187136 -0.414368 0.000000 0.000000 0.000000 6.875519 5.920365 1.476791 -64.008533 10.629145 7.072113 -179.425497 -82.215770 -179.965146 -6.644119 1.806123 -0.090543 0.108053 0.269252 0.000000 0.000000 0.000000 0.000000 0.000000 0.000000 0.000000 9.875499 -8.829320 0.248177 73.498985 -11.020708 10.564792 0.072927 87.093821 -0.028783 -6.464622 2.001216 -0.131102 0.097108 -0.303610 0.000000 0.000000 0.000000 0.000000 0.000000 0.000000 0.000000 
1.497736 15.405015 3.511517 10.124908 31.708902 23.249314 -11.150801 2.645317 -6.948537 -3.966919 26.390599 -25.896375 -0.080710 4.943869 66.765129 0.890549 2.462323 7.633298 0.287300 0.000001 -64.884401 9.338295 1.207589 -4.149981 22.946102 -12.192664 -58.160835 1.757738 -5.079924 59.758312 -5.758254 -16.403408 -38.266284 -171.246600 -0.000000 -26.929001 3.210621 -3.871860 14.002337 0.122449 -3.558867 -0.331434 -5.092543 -3.441114 -1.031977 8.119352 -12.720827 -7.821180 -2.927941 -0.189490 -0.398293 0.000000 0.000000 0.000000 6.822687 5.967767 1.495019 -65.346723 11.566489 7.370612 -179.523874 -83.499174 -179.966174 -6.636841 1.839628 -0.092945 0.108730 0.259951 0.000000 0.000000 0.000000 0.000000 0.000000 0.000000 0.000000 10.053685 -8.588826 0.204868 73.615425 -10.039323 10.095934 0.083681 86.613011 -0.030072 -6.678826 1.822916 -0.125010 0.101025 -0.303308 0.000000 0.000000 0.000000 0.000000 0.000000 0.000000 0.000000 
1.558911 15.393937 3.635829 10.267747 30.930030 23.142533 -11.195263 2.670198 -6.840966 -3.920570 25.966676 -25.816398 0.030788 4.953317 67.502345 0.906951 2.305496 8.274133 0.252700 -0.000001 -61.800200 9.391521 1.168051 -4.192206 22.666476 -12.377323 -57.557683 1.766030 -5.090781 60.235003 -5.684968 -15.946939 -38.867960 -171.238500 0.000000 -26.587700 3.218412 -3.840087 13.927607 0.121085 -3.523215 -0.348551 -5.092278 -3.409590 -1.032557 8.174055 -12.498854 -7.772843 -2.942756 -0.191228 -0.384015 0.000000 0.000000 0.000000 6.777682 6.024758 1.515781 -66.643718 12.454004 7.646703 -179.623714 -84.866663 -179.967487 -6.577518 1.877247 -0.094843 0.107948 0.250368 0.000000 0.000000 0.000000 0.000000 0.000000 0.000000 0.000000 10.212420 -8.376463 0.154438 73.779485 -9.068693 9.637834 0.091652 86.216386 -0.031466 -6.894869 1.668131 -0.119618 0.104596 -0.303890 0.000000 0.000000 0.000000 0.000000 0.000000 0.000000 0.000000 
1.616629 15.384968 3.760019 10.436699 30.164285 23.087808 -11.223958 2.691131 -6.724223 -3.986352 25.448782 -25.836754 0.133035 4.958395 68.216437 0.919215 2.214088 8.648794 0.229801 0.000000 -58.862800 9.452560 1.138334 -4.219694 22.333930 -12.515976 -56.963861 1.774842 -5.095759 60.637224 -5.616060 -15.509623 -39.418220 -171.250500 -0.000000 -26.320800 3.191910 -3.806834 13.833985 0.111430 -3.486972 -0.366290 -5.097657 -3.377110 -1.025282 8.234336 -12.305544 -7.734568 -2.949572 -0.192283 -0.372452 0.000000 0.000000 0.000000 6.738358 6.092810 1.541027 -67.885200 13.288849 7.911324 -179.723190 -86.302188 -179.969026 -6.471806 1.913048 -0.095933 0.105850 0.240670 0.000000 0.000000 0.000000 0.000000 0.000000 0.000000 0.000000 10.344172 -8.190082 0.097936 73.992200 -8.121521 9.199351 0.096345 85.920160 -0.032865 -7.091302 1.548374 -0.115627 0.107473 -0.305546 0.000000 0.000000 0.000000 0.000000 0.000000 0.000000 0.000000 
1.671027 15.378147 3.883807 10.630195 29.414642 23.084947 -11.238240 2.706702 -6.599593 -4.156524 24.845063 -25.962387 0.226286 4.960307 68.910188 0.925912 2.186617 8.743190 0.220900 0.000000 -56.003700 9.520670 1.119264 -4.232642 21.951051 -12.606003 -56.392504 1.781274 -5.096890 60.987802 -5.552979 -15.103995 -39.918916 -171.274500 0.000000 -26.117500 3.135763 -3.772198 13.723546 0.094736 -3.450256 -0.384835 -5.107272 -3.343854 -1.011978 8.296232 -12.138559 -7.708185 -2.948262 -0.192624 -0.364196 0.000000 0.000000 0.000000 6.701461 6.173783 1.572530 -69.058563 14.071444 8.175724 -179.820836 -87.788239 -179.970728 -6.327010 1.941391 -0.095922 0.102631 0.231019 0.000000 0.000000 0.000000 0.000000 0.000000 0.000000 0.000000 10.442238 -8.024668 0.036533 74.250145 -7.207542 8.791158 0.097552 85.734674 -0.034172 -7.248506 1.470846 -0.113437 0.109368 -0.308374 0.000000 0.000000 0.000000 0.000000 0.000000 0.000000 0.000000 
1.722298 15.373629 4.006826 10.841745 28.681878 23.130476 -11.239885 2.714390 -6.467508 -4.418579 24.164706 -26.196201 0.310821 4.959170 69.576698 0.929336 2.239111 8.584182 0.231000 0.000000 -53.539800 9.593655 1.110200 -4.232284 21.529314 -12.647481 -55.853636 1.783753 -5.095383 61.302259 -5.496749 -14.738020 -40.372817 -171.303600 -0.000000 -25.964100 3.056912 -3.735419 13.598433 0.072692 -3.412367 -0.404486 -5.119607 -3.309240 -0.994768 8.356109 -11.994000 -7.694165 -2.938972 -0.192251 -0.359447 0.000000 0.000000 0.000000 6.662724 6.268456 1.611453 -70.153375 14.804280 8.450793 -179.915525 -89.306034 -179.972524 -6.152372 1.957413 -0.094608 0.098547 0.221550 0.000000 0.000000 0.000000 0.000000 0.000000 0.000000 0.000000 10.501458 -7.874009 -0.028334 74.544896 -6.333937 8.426074 0.095372 85.663320 -0.035297 -7.351075 1.438939 -0.113248 0.110089 -0.312382 0.000000 0.000000 0.000000 0.000000 0.000000 0.000000 0.000000 
1.770687 15.371497 4.128768 11.061222 27.964212 23.219321 -11.231337 2.711847 -6.329019 -4.753926 23.420762 -26.541538 0.386525 4.956276 70.217181 0.931503 2.385206 8.178519 0.261799 0.000000 -51.395100 9.668198 1.108752 -4.220246 21.087252 -12.643159 -55.353442 1.782072 -5.091700 61.589264 -5.447502 -14.412778 -40.782744 -171.334100 -0.000000 -25.830500 2.964109 -3.695307 13.460971 0.047321 -3.372205 -0.425494 -5.133117 -3.272314 -0.975621 8.410723 -11.866743 -7.692017 -2.922047 -0.191191 -0.358129 0.000000 0.000000 0.000000 6.617617 6.377879 1.658460 -71.161723 15.492073 8.746163 -0.006452 -89.163194 0.025650 -5.958309 1.958110 -0.092093 0.093885 0.212359 0.000000 0.000000 0.000000 0.000000 0.000000 0.000000 0.000000 10.518195 -7.731218 -0.095261 74.864932 -5.504089 8.117229 0.090130 85.703184 -0.036174 -7.389006 1.451627 -0.114960 0.109540 -0.317496 0.000000 0.000000 0.000000 0.000000 0.000000 0.000000 0.000000 
1.816428 15.371829 4.249381 11.279012 27.258009 23.345518 -11.214242 2.696728 -6.184883 -5.144639 22.625634 -26.996659 0.453320 4.951607 70.824320 0.937114 2.650408 7.562246 0.315701 0.000000 -49.739700 9.741453 1.112386 -4.199128 20.643450 -12.600573 -54.894921 1.777321 -5.086076 61.851242 -5.403991 -14.121480 -41.150554 -171.366400 0.000000 -25.685900 2.863516 -3.650282 13.314069 0.020062 -3.328195 -0.447975 -5.146375 -3.231626 -0.956483 8.458169 -11.750676 -7.699962 -2.898004 -0.189498 -0.359799 0.000000 0.000000 0.000000 6.563260 6.502090 1.713521 -72.078223 16.142082 9.069348 -0.093066 -87.637682 0.023848 -5.754748 1.941733 -0.088477 0.088916 0.203496 0.000000 0.000000 0.000000 0.000000 0.000000 0.000000 0.000000 10.491423 -7.589013 -0.162870 75.196396 -4.720200 7.877451 0.082320 85.845790 -0.036758 -7.358987 1.505538 -0.118474 0.107730 -0.323588 0.000000 0.000000 0.000000 0.000000 0.000000 0.000000 0.000000 
